<svg xmlns="http://www.w3.org/2000/svg" viewBox="0 0 128 128">
  <!-- Urban Ghost hoe: platinum ash hair under a graphite beanie, grey crewneck, urban-camo quilted puffer with pale trim, silver heart chain, mauve lip. -->
  <defs>
    <filter id="s" x="-20%" y="-20%" width="140%" height="140%"><feDropShadow dx="0" dy="3" stdDeviation="2.5" flood-color="#000" flood-opacity=".6"/></filter>
    <filter id="wave" x="-15%" y="-15%" width="130%" height="130%"><feTurbulence type="fractalNoise" baseFrequency=".06 .11" numOctaves="2" seed="4"/><feDisplacementMap in="SourceGraphic" scale="7" xChannelSelector="R" yChannelSelector="G"/></filter>
    <filter id="waveFront" x="-15%" y="-15%" width="130%" height="130%"><feTurbulence type="fractalNoise" baseFrequency=".06 .11" numOctaves="2" seed="4"/><feDisplacementMap in="SourceGraphic" scale="4.5" xChannelSelector="R" yChannelSelector="G"/></filter>
    <filter id="fuzz" x="-10%" y="-10%" width="120%" height="120%"><feTurbulence type="fractalNoise" baseFrequency=".45" numOctaves="2" seed="7"/><feDisplacementMap in="SourceGraphic" scale="6" xChannelSelector="R" yChannelSelector="G"/></filter>
    <linearGradient id="hair" x1="0" y1="0" x2="0" y2="1"><stop offset="0" stop-color="#7a8088"/><stop offset=".25" stop-color="#e6e8ea"/><stop offset=".7" stop-color="#c4c8cc"/><stop offset="1" stop-color="#8a9098"/></linearGradient>
    <linearGradient id="hairFront" x1="0" y1="0" x2="1" y2="0"><stop offset="0" stop-color="#a9aeb3"/><stop offset=".3" stop-color="#d8dbde"/><stop offset=".5" stop-color="#f2f4f6"/><stop offset=".7" stop-color="#d8dbde"/><stop offset="1" stop-color="#a9aeb3"/></linearGradient>
    <radialGradient id="skin" cx=".42" cy=".35" r=".75"><stop offset="0" stop-color="#f4cfb0"/><stop offset=".7" stop-color="#dca383"/><stop offset="1" stop-color="#b2745a"/></radialGradient>
    <linearGradient id="beanie" x1="0" y1="0" x2="0" y2="1"><stop offset="0" stop-color="#6b7077"/><stop offset=".6" stop-color="#3f4348"/><stop offset="1" stop-color="#25282d"/></linearGradient>
    <linearGradient id="tee" x1="0" y1="0" x2="0" y2="1"><stop offset="0" stop-color="#5c6168"/><stop offset="1" stop-color="#2b2e33"/></linearGradient>
    <linearGradient id="gold" x1="0" y1="0" x2="1" y2="1"><stop offset="0" stop-color="#fff2a8"/><stop offset=".5" stop-color="#e0b640"/><stop offset="1" stop-color="#8a6508"/></linearGradient>
    <linearGradient id="lid" x1="0" y1="0" x2="0" y2="1"><stop offset="0" stop-color="#e6eef5" stop-opacity=".2"/><stop offset="1" stop-color="#8a9098"/></linearGradient>
    <clipPath id="eyes"><path d="M50.4 53.4 Q55.5 48.6 60.4 52.9 Q55.5 57.4 50.4 53.4 Z M77.6 53.4 Q72.5 48.6 67.6 52.9 Q72.5 57.4 77.6 53.4 Z"/></clipPath>
    <clipPath id="mouth"><path d="M57.5 66.2 Q64 67.6 70.5 66.2 Q64 72.6 57.5 66.2 Z"/></clipPath>
    <clipPath id="face"><path d="M47 50 Q47 33.5 64 33.5 Q81 33.5 81 50 Q81 62 77.5 69 Q74.5 74.6 70 77 Q67 78.4 64 78.4 Q61 78.4 58 77 Q53.5 74.6 50.5 69 Q47 62 47 50 Z"/></clipPath>
    <radialGradient id="blush"><stop offset="0" stop-color="#ec5f6c" stop-opacity=".6"/><stop offset=".6" stop-color="#ec6f72" stop-opacity=".3"/><stop offset="1" stop-color="#ec7f78" stop-opacity="0"/></radialGradient>
    <radialGradient id="contour"><stop offset="0" stop-color="#a8664c" stop-opacity=".45"/><stop offset="1" stop-color="#a8664c" stop-opacity="0"/></radialGradient>
    <radialGradient id="glow"><stop offset="0" stop-color="#fff" stop-opacity=".45"/><stop offset="1" stop-color="#fff" stop-opacity="0"/></radialGradient>
    <linearGradient id="silver" x1="0" y1="0" x2="1" y2="1"><stop offset="0" stop-color="#ffffff"/><stop offset=".5" stop-color="#a3abb4"/><stop offset="1" stop-color="#5d646d"/></linearGradient>
    <clipPath id="puffer"><path d="M0 136 Q0 96 20 86 Q36 80 47 84 Q56 90 56 104 L52 136 Z M128 136 Q128 96 108 86 Q92 80 81 84 Q72 90 72 104 L76 136 Z"/></clipPath>
    <filter id="sm" filterUnits="userSpaceOnUse" x="0" y="0" width="128" height="128"><feDropShadow dx="0" dy="1.2" stdDeviation=".8" flood-color="#000" flood-opacity=".5"/></filter>
  </defs>
  <g filter="url(#s)">
    <g filter="url(#wave)">
      <path d="M64 11 Q40 11 34 29 Q26 45 27 63 Q25 80 17 96 Q16 107 27 107 Q30 115 41 112 Q45 100 46 92 H82 Q83 100 87 112 Q98 115 101 107 Q112 107 111 96 Q103 80 101 63 Q102 45 94 29 Q88 11 64 11 Z" fill="url(#hair)" stroke="#3f4348" stroke-width="1.3" stroke-linejoin="round"/>
      <g fill="none" stroke-linecap="round">
        <path d="M30 52 q-3 4 0 8 q3 4 0 8 q-3 4 -1 8 q2 4 -3 8 q-3 4 -5 9 M36 46 q-3 4 0 8 q3 4 0 8 q-3 4 0 8 q3 4 -1 8 q-2 4 -2 9 q-1 5 -1 9" stroke="#6b7077" stroke-width=".9"/>
        <path d="M98 52 q3 4 0 8 q-3 4 0 8 q3 4 1 8 q-2 4 3 8 q3 4 5 9 M92 46 q3 4 0 8 q-3 4 0 8 q3 4 0 8 q-3 4 1 8 q2 4 2 9 q1 5 1 9" stroke="#6b7077" stroke-width=".9"/>
        <path d="M33 60 q-2 4 0 8 q2 4 0 8 q-2 4 -2 8 M95 60 q2 4 0 8 q-2 4 0 8 q2 4 2 8" stroke="#ffffff" stroke-width=".9" opacity=".7"/>
      </g>
    </g>
    <path d="M30 136 Q30 96 44 88 Q52 85 55.5 81 Q57 77 57 68 H71 Q71 77 72.5 81 Q76 85 84 88 Q98 96 98 136 Z" fill="url(#skin)" stroke="#6a3a26" stroke-width="1.3" stroke-linejoin="round"/>
    <path d="M57.2 74 Q64 82 70.8 74 V79.5 Q64 84 57.2 79.5 Z" fill="#a8684e" opacity=".55"/>
    <path d="M56.5 88.6 Q59 89.6 61.5 89.3 M66.5 89.3 Q69 89.6 71.5 88.6" stroke="#b0705a" stroke-width=".6" fill="none" stroke-linecap="round" opacity=".6"/>
    <path d="M45 136 L47 96 Q52 91 56 91 Q64 97 72 91 Q76 91 81 96 L83 136 Z" fill="url(#tee)" stroke="#000" stroke-width="1.3" stroke-linejoin="round"/>
    <path d="M56.5 92.6 Q64 98.8 71.5 92.6" fill="none" stroke="#8a9098" stroke-width="1.4"/>
    <path d="M0 136 Q0 96 20 86 Q36 80 47 84 Q56 90 56 104 L52 136 Z M128 136 Q128 96 108 86 Q92 80 81 84 Q72 90 72 104 L76 136 Z" fill="#8f949a" stroke="#16181b" stroke-width="1.4" stroke-linejoin="round"/>
  </g>
  <g clip-path="url(#puffer)">
    <path d="M0 90 L22 84 L20 104 L0 106 Z" fill="#3f4348"/>
    <path d="M24 100 L50 96 L54 120 L26 122 Z" fill="#c4c8cc"/>
    <path d="M30 84 L48 82 L50 94 L32 96 Z" fill="#5c6168"/>
    <path d="M0 116 L22 114 L24 136 L0 136 Z" fill="#b2b6bb"/>
    <path d="M128 92 L104 84 L106 104 L128 106 Z" fill="#c4c8cc"/>
    <path d="M76 98 L102 96 L100 120 L78 122 Z" fill="#3f4348"/>
    <path d="M128 116 L104 114 L102 136 L128 136 Z" fill="#5c6168"/>
    <path d="M0 104 Q26 96 56 104M0 118 Q26 110 54 118M0 132 Q26 124 53 132M128 104 Q102 96 72 104M128 118 Q102 110 74 118M128 132 Q102 124 75 132" stroke="#16181b" stroke-width="1.1" stroke-opacity=".75" fill="none"/>
  </g>
  <g filter="url(#fuzz)" fill="#eef1f4" stroke="#8a9098" stroke-width=".8">
    <path d="M47 84 Q56 90 56 104 L52 104 Q52 93 44 88 Z"/>
    <path d="M81 84 Q72 90 72 104 L76 104 Q76 93 84 88 Z"/>
  </g>
  <path d="M56 82.5 Q57 89.5 64 90.8 Q71 89.5 72 82.5" fill="none" stroke="#3f4348" stroke-width="1.3" stroke-linecap="round"/>
  <path d="M56 82.5 Q57 89.5 64 90.8 Q71 89.5 72 82.5" fill="none" stroke="url(#silver)" stroke-width=".9" stroke-dasharray=".9 .5" stroke-linecap="round"/>
  <g filter="url(#sm)"><path d="M64 95 Q60.6 92.6 61.6 91.2 Q62.8 90 64 91.3 Q65.2 90 66.4 91.2 Q67.4 92.6 64 95 Z" fill="url(#silver)" stroke="#3f4348" stroke-width=".5" stroke-linejoin="round"/></g>
  <path d="M62.3 91.6 Q62.8 91 63.4 91.5" stroke="#ffffff" stroke-width=".5" fill="none" stroke-linecap="round"/>
  <g filter="url(#s)">
    <path d="M47 50 Q47 33.5 64 33.5 Q81 33.5 81 50 Q81 62 77.5 69 Q74.5 74.6 70 77 Q67 78.4 64 78.4 Q61 78.4 58 77 Q53.5 74.6 50.5 69 Q47 62 47 50 Z" fill="url(#skin)" stroke="#6a3a26" stroke-width="1.3" stroke-linejoin="round"/>
  </g>
  <g filter="url(#s)"><g filter="url(#waveFront)">
    <path d="M30 110 Q34 92 37 76 Q33 56 40 40 Q44 21 56 15.5 Q64 12 72 15.5 Q84 21 88 40 Q95 56 91 76 Q94 92 98 110 Q91 115 86 108 Q82 92 82 78 Q84.5 64 83.5 52 Q81.5 40 72 35.5 Q64 32 56 35.5 Q46.5 40 44.5 52 Q43.5 64 46 78 Q46 92 42 108 Q37 115 30 110 Z" fill="url(#hairFront)" stroke="#4a4f56" stroke-width="1.1" stroke-linejoin="round"/>
    <g fill="none" stroke-linecap="round">
      <path d="M47 44 Q47 28 58 18.5 M52 38 Q53 26 61 17.5 M58 35 Q59 25 64 16.5 M70 35 Q69 25 64 16.5 M76 38 Q75 26 67 17.5 M81 44 Q81 28 70 18.5" stroke="#7a8088" stroke-width=".65"/>
      <path d="M49.5 41 Q50 28 59.5 18 M78.5 41 Q78 28 68.5 18" stroke="#ffffff" stroke-width="1.3" opacity=".75"/>
      <path d="M40 54 q-2 4 0 8 q2 4 0 8 q-2 4 0 8 q2 4 -1 8 q-2 4 -3 8 q-1 4 -3 8 M43 62 q-1.5 4 0 8 q1.5 4 0 8 q-1.5 4 -1 8 q1 4 -1 8 q-1.5 4 -2.5 8" stroke="#7a8088" stroke-width=".9"/>
      <path d="M88 54 q2 4 0 8 q-2 4 0 8 q2 4 0 8 q-2 4 1 8 q2 4 3 8 q1 4 3 8 M85 62 q1.5 4 0 8 q-1.5 4 0 8 q1.5 4 1 8 q-1 4 1 8 q1.5 4 2.5 8" stroke="#7a8088" stroke-width=".9"/>
      <path d="M38.5 66 q-1 6 0 12 q1 5 -1 10 M89.5 66 q1 6 0 12 q-1 5 1 10" stroke="#ffffff" stroke-width="1.2" opacity=".6"/>
    </g>
  </g></g>
  <g filter="url(#s)" stroke="#16181b" stroke-width="1.3" stroke-linejoin="round">
    <path d="M42 40 Q40 10 64 9 Q88 10 86 40 Z" fill="url(#beanie)"/>
    <path d="M40 43 Q64 32 88 43 L88 35 Q64 25 40 35 Z" fill="#4c5158"/>
  </g>
  <path d="M50 30 Q50 18 56 13M57 29 Q58 16 61 11M64 28 V10M71 29 Q70 16 67 11M78 30 Q78 18 72 13" stroke="#25282d" stroke-width=".8" fill="none"/>
  <path d="M44 36.5 V41M48 34.8 V39.4M52 33.5 V38M56 32.6 V37.2M60 32 V36.6M64 31.8 V36.4M68 32 V36.6M72 32.6 V37.2M76 33.5 V38M80 34.8 V39.4M84 36.5 V41" stroke="#2b2e33" stroke-width=".8"/>
  <path d="M48 22 Q54 14 62 12" stroke="#c9cdd1" stroke-opacity=".5" stroke-width="1.4" fill="none" stroke-linecap="round"/>
  <g clip-path="url(#face)">
    <ellipse cx="50" cy="66" rx="4" ry="7.5" transform="rotate(18 50 66)" fill="url(#contour)"/>
    <ellipse cx="78" cy="66" rx="4" ry="7.5" transform="rotate(-18 78 66)" fill="url(#contour)"/>
    <ellipse cx="53" cy="60.2" rx="6" ry="3.4" transform="rotate(-14 53 60.2)" fill="url(#blush)"/>
    <ellipse cx="75" cy="60.2" rx="6" ry="3.4" transform="rotate(14 75 60.2)" fill="url(#blush)"/>
    <ellipse cx="52.4" cy="57.4" rx="3.4" ry="1.3" transform="rotate(-14 52.4 57.4)" fill="url(#glow)"/>
    <ellipse cx="75.6" cy="57.4" rx="3.4" ry="1.3" transform="rotate(14 75.6 57.4)" fill="url(#glow)"/>
  </g>
  <g stroke-linecap="round" fill="none">
    <path d="M60.4 46.4 Q59.8 45.1 57.4 44.5 Q53.8 43.9 51.5 45.1 Q50.1 45.9 49.2 47.6 Q51.1 46 53.4 45.4 Q56.8 45 60.4 46.4 Z M67.6 46.4 Q68.2 45.1 70.6 44.5 Q74.2 43.9 76.5 45.1 Q77.9 45.9 78.8 47.6 Q76.9 46 74.6 45.4 Q71.2 45 67.6 46.4 Z" fill="#7e5428" stroke="#6a4420" stroke-width=".3" stroke-linejoin="round"/>
    <path d="M59.6 46.1 L58.8 45.2 M58.4 45.9 L57.6 44.9 M68.4 46.1 L69.2 45.2 M69.6 45.9 L70.4 44.9" stroke="#a87c44" stroke-width=".4"/>
    <path d="M49.8 53.2 Q55.5 48.2 60.9 52.5 Q59.6 46.6 55.5 46.2 Q51 46.6 49.8 53.2 Z M78.2 53.2 Q72.5 48.2 67.1 52.5 Q68.4 46.6 72.5 46.2 Q77 46.6 78.2 53.2 Z" fill="url(#lid)" stroke="none"/>
    <path d="M50.4 53.4 Q55.5 48.6 60.4 52.9 Q55.5 57.4 50.4 53.4 Z M77.6 53.4 Q72.5 48.6 67.6 52.9 Q72.5 57.4 77.6 53.4 Z" fill="#fbf6ee" stroke="none"/>
    <g clip-path="url(#eyes)" stroke="none">
      <circle cx="55.4" cy="53.1" r="2.5" fill="#3a6a8a"/><circle cx="72.6" cy="53.1" r="2.5" fill="#3a6a8a"/><circle cx="55.4" cy="53.1" r="2.5" fill="none" stroke="#1d3a4e" stroke-width=".5"/><circle cx="72.6" cy="53.1" r="2.5" fill="none" stroke="#1d3a4e" stroke-width=".5"/>
      <circle cx="55.4" cy="53.1" r="1.1" fill="#0b0b0b"/><circle cx="72.6" cy="53.1" r="1.1" fill="#0b0b0b"/>
      <circle cx="56.3" cy="52.2" r=".7" fill="#fff"/><circle cx="73.5" cy="52.2" r=".7" fill="#fff"/>
    </g>
    <path d="M60.6 53 Q55.5 48.4 50.4 53.4 L48.2 51.2 Q55 46.6 60.9 52.4 Z M67.4 53 Q72.5 48.4 77.6 53.4 L79.8 51.2 Q73 46.6 67.1 52.4 Z" fill="#0b0604" stroke="none"/>
    <path d="M50.8 51.8 Q49.4 51 48.9 49.9 M52.4 50.6 Q51.3 49.6 51.1 48.4 M54.2 49.8 Q53.5 48.7 53.6 47.6 M77.2 51.8 Q78.6 51 79.1 49.9 M75.6 50.6 Q76.7 49.6 76.9 48.4 M73.8 49.8 Q74.5 48.7 74.4 47.6" stroke="#0b0604" stroke-width=".65"/>
    <path d="M51.2 54.6 Q55.5 57.8 59.9 54.2 M76.8 54.6 Q72.5 57.8 68.1 54.2" stroke="#7a4636" stroke-width=".6" opacity=".8"/>
    <path d="M65 50.5 Q65.4 55.6 66.8 58.6 Q65.2 57.6 64.6 54 Z" fill="#b2745a" opacity=".4" stroke="none"/>
    <path d="M61.3 60.1 Q62.3 61.8 64 61.6 Q65.7 61.8 66.7 60.1" stroke="#b0705a" stroke-width=".8"/>
    <path d="M61.3 60.1 Q60.4 59.3 61.1 58.3 M66.7 60.1 Q67.6 59.3 66.9 58.3" stroke="#b0705a" stroke-width=".7"/>
    <ellipse cx="62.5" cy="60.8" rx=".8" ry=".45" fill="#8a4a38" opacity=".7" stroke="none"/>
    <ellipse cx="65.5" cy="60.8" rx=".8" ry=".45" fill="#8a4a38" opacity=".7" stroke="none"/>
    <ellipse cx="63.6" cy="58.4" rx=".7" ry="1.6" fill="url(#glow)" stroke="none"/>
    <path d="M57.2 61.8 Q55.8 64 56.4 66.4 M70.8 61.8 Q72.2 64 71.6 66.4" stroke="#b0705a" stroke-width=".6" opacity=".35"/>
  </g>
  <path d="M57.5 66.2 Q64 67.6 70.5 66.2 Q64 72.6 57.5 66.2 Z" fill="#3a0a12"/>
  <g clip-path="url(#mouth)">
    <ellipse cx="64" cy="71.2" rx="3.6" ry="1.4" fill="#a8303f"/>
    <path d="M57.5 66 Q64 67.4 70.5 66 Q68.6 69.6 64 69.8 Q59.4 69.6 57.5 66 Z" fill="#f4ecd2"/>
    <path d="M61.2 67 V69.4 M64 67.3 V69.8 M66.8 67 V69.4" stroke="#cdbd93" stroke-width=".45"/>
  </g>
  <g fill="#b0687a" stroke="#6a3040" stroke-width=".7" stroke-linejoin="round">
    <path d="M56.4 66 Q59.4 64.2 62.2 64.8 Q64 65.4 65.8 64.8 Q68.6 64.2 71.6 66 Q64 67.8 56.4 66 Z"/>
    <path d="M56.6 66.1 Q64 72.6 71.4 66.1 Q69.2 72.9 64 73.5 Q58.8 72.9 56.6 66.1 Z"/>
  </g>
  <g fill="none" stroke-linecap="round">
    <path d="M60.2 65.3 Q61.6 64.8 62.8 65.2" stroke="#e0a0b0" stroke-width=".6"/>
    <path d="M61.5 72.3 Q64 72.9 66.5 72.3" stroke="#e0a0b0" stroke-width=".9"/>
    <path d="M56.4 66 Q55.6 65.7 55.3 64.8 M71.6 66 Q72.4 65.7 72.7 64.8" stroke="#a8684e" stroke-width=".7"/>
  </g>
  <path d="M61.6 75.3 Q64 76 66.4 75.3" stroke="#b2745a" stroke-width=".7" fill="none" stroke-linecap="round" opacity=".4"/>
</svg>