<svg xmlns="http://www.w3.org/2000/svg" width="512" height="512" viewBox="0 0 512 512"><defs>
<linearGradient id="metal" x1="0" y1="0" x2="1" y2="1"><stop offset="0" stop-color="#28a9ff"/><stop offset=".24" stop-color="#171d22"/><stop offset=".58" stop-color="#2c3942"/><stop offset="1" stop-color="#606f78"/></linearGradient>
<linearGradient id="dark" x1="0" y1="0" x2="0" y2="1"><stop stop-color="#2c3942"/><stop offset="1" stop-color="#0b0f12"/></linearGradient>
<linearGradient id="shine" x1="0" y1="0" x2="1" y2="0"><stop stop-color="#53c7ff" stop-opacity="0"/><stop offset=".48" stop-color="#53c7ff" stop-opacity=".65"/><stop offset=".55" stop-color="white" stop-opacity=".72"/><stop offset=".62" stop-color="#53c7ff" stop-opacity=".25"/><stop offset="1" stop-color="#53c7ff" stop-opacity="0"/></linearGradient>
<filter id="shadow" x="-30%" y="-30%" width="160%" height="160%"><feGaussianBlur in="SourceAlpha" stdDeviation="8"/><feOffset dy="10"/><feComponentTransfer><feFuncA type="linear" slope=".55"/></feComponentTransfer><feMerge><feMergeNode/><feMergeNode in="SourceGraphic"/></feMerge></filter>
</defs><g filter="url(#shadow)" stroke="#080b0d" stroke-width="7" stroke-linejoin="round" stroke-linecap="round"><rect x="70" y="184" width="255" height="70" rx="12" fill="url(#metal)"/>
<rect x="32" y="199" width="95" height="38" rx="14" fill="#171d22"/>
<rect x="7" y="207" width="45" height="23" rx="8" fill="#0b0f12"/>
<path d="M245 248 L320 252 L286 406 L213 394 L225 302 Z" fill="url(#dark)"/>
<path d="M162 255 Q181 310 235 300" fill="none"/>
<rect x="258" y="276" width="75" height="28" rx="8" fill="#171d22"/>
<circle cx="296" cy="291" r="10" fill="#53c7ff" stroke="none"/>
<path d="M165 180 h82 v-29 h51 v29" fill="#0b0f12"/>
<rect x="180" y="146" width="52" height="26" rx="6" fill="#171d22"/>
<path d="M91 193 h170" stroke="url(#shine)" stroke-width="6"/>
<circle cx="149" cy="219" r="6" fill="#28a9ff" stroke="none"/></g></svg>