<svg xmlns="http://www.w3.org/2000/svg" viewBox="0 0 128 128">
  <defs><filter id="s" x="-20%" y="-20%" width="140%" height="140%"><feDropShadow dx="0" dy="3" stdDeviation="2.5" flood-color="#000" flood-opacity=".6"/></filter>
    <linearGradient id="ch" x1="0" y1="0" x2="1" y2="1"><stop offset="0" stop-color="#ffffff"/><stop offset=".45" stop-color="#b3bac3"/><stop offset="1" stop-color="#5d646d"/></linearGradient>
    <linearGradient id="gd" x1="0" y1="0" x2="1" y2="1"><stop offset="0" stop-color="#fff0a8"/><stop offset=".5" stop-color="#e0b640"/><stop offset="1" stop-color="#8a6508"/></linearGradient>
    <linearGradient id="lt" x1="0" y1="0" x2="1" y2="1"><stop offset="0" stop-color="#4f86ee"/><stop offset="1" stop-color="#16357a"/></linearGradient>
  </defs>
  <g filter="url(#s)">
    <circle cx="40" cy="34" r="18" fill="none" stroke="#16181c" stroke-width="7"/>
    <circle cx="40" cy="34" r="18" fill="none" stroke="url(#ch)" stroke-width="3.6"/>
    <g transform="translate(50 50) rotate(-30)" stroke="#16181c" stroke-width="1.5" stroke-linejoin="round">
      <path d="M-3 -6 H3 V4 H-3 Z" fill="url(#ch)"/>
      <path d="M-14 2 H14 V52 Q14 58 8 58 H-8 Q-14 58 -14 52 Z" fill="url(#lt)"/>
      <circle cy="10" r="3" fill="#0a1838"/>
      <path d="M-9 20 H9 M-9 48 H9" stroke="#b9cdf5" stroke-dasharray="2 2" stroke-width="1"/>
    </g>
    <g transform="translate(58 44) rotate(30)" stroke="#16181c" stroke-width="1.5" stroke-linejoin="round">
      <path d="M-2 -4 H2 V6 H-2 Z" fill="url(#ch)"/>
      <rect x="-13" y="4" width="26" height="22" rx="8" fill="#17191c"/>
      <path d="M-6 13 H6" stroke="#4a4f58" stroke-width="2" stroke-linecap="round"/>
      <path d="M-5 26 H5 V70 L1 74 H-2 V68 H-5 V62 H-2 V56 H-5 Z" fill="url(#ch)"/>
      <path d="M0 30 V66" stroke="#fff" stroke-opacity=".7" stroke-width="1.2"/>
    </g>
    <g transform="translate(78 32) rotate(62)" stroke="#5a4208" stroke-width="1.4" stroke-linejoin="round">
      <rect x="-9" y="-2" width="18" height="16" rx="7" fill="url(#gd)"/>
      <circle cy="3" r="2.4" fill="#2a2004" stroke="none"/>
      <path d="M-4 14 H4 V50 L0 54 L-4 50 Z" fill="url(#gd)"/>
      <path d="M0 18 V46" stroke="#fff4c0" stroke-width="1.2"/>
    </g>
  </g>
  <path d="M28 20 Q36 14 46 16" stroke="#fff" stroke-opacity=".8" stroke-width="1.6" fill="none" stroke-linecap="round"/>
</svg>
