<svg xmlns="http://www.w3.org/2000/svg" viewBox="0 0 128 128">
  <defs>
    <filter id="s" x="-20%" y="-20%" width="140%" height="140%"><feDropShadow dx="0" dy="3" stdDeviation="2.5" flood-color="#000" flood-opacity=".6"/></filter>
    <linearGradient id="sh" x1="0" y1="0" x2="0" y2="1"><stop offset="0" stop-color="#6fb8ff"/><stop offset=".5" stop-color="#2f78d6"/><stop offset="1" stop-color="#163f86"/></linearGradient>
    <linearGradient id="bd" x1="0" y1="0" x2="0" y2="1"><stop offset="0" stop-color="#6ee89a"/><stop offset="1" stop-color="#1f9d55"/></linearGradient>
  </defs>
  <g filter="url(#s)">
    <path d="M64 10 L108 24 V60 Q108 98 64 118 Q20 98 20 60 V24 Z" fill="url(#sh)" stroke="#0a0b0d" stroke-width="2" stroke-linejoin="round"/>
    <path d="M64 17 L101 29 V60 Q101 93 64 111 Q27 93 27 60 V29 Z" fill="none" stroke="#bfe0ff" stroke-opacity=".7" stroke-width="1.6" stroke-linejoin="round"/>
  </g>
  <path d="M30 32 L64 21 L98 32" fill="none" stroke="#fff" stroke-opacity=".35" stroke-width="2" stroke-linecap="round"/>
  <g transform="translate(36.7 47.6) scale(3)" fill="none" stroke="#000" stroke-width="2.5" stroke-linejoin="miter" stroke-linecap="square" opacity=".45"><path d="M0 12 V0 H5 Q8 0 8 3.2 Q8 6.4 5 6.4 H0 M4.5 6.4 L8 12"/><path transform="translate(11 0)" d="M0 12 V0 H5 Q8 0 8 3.2 Q8 6.4 5 6.4 H0"/></g>
  <g transform="translate(35.5 46) scale(3)" fill="none" stroke="#f4f8ff" stroke-width="2.5" stroke-linejoin="miter" stroke-linecap="square"><path d="M0 12 V0 H5 Q8 0 8 3.2 Q8 6.4 5 6.4 H0 M4.5 6.4 L8 12"/><path transform="translate(11 0)" d="M0 12 V0 H5 Q8 0 8 3.2 Q8 6.4 5 6.4 H0"/></g>
  <path d="M40 94 H88" stroke="#bfe0ff" stroke-opacity=".6" stroke-width="1.6"/>
  <g filter="url(#s)">
    <circle cx="100" cy="28" r="16" fill="url(#bd)" stroke="#0a0b0d" stroke-width="2"/>
    <circle cx="100" cy="28" r="12.5" fill="none" stroke="#d6ffe4" stroke-opacity=".6" stroke-width="1.2"/>
  </g>
  <path d="M92 28 H108 M100 20 V36" stroke="#0a0b0d" stroke-opacity=".45" stroke-width="5.5" stroke-linecap="square" transform="translate(.8 1)"/>
  <path d="M92 28 H108 M100 20 V36" stroke="#fff" stroke-width="5" stroke-linecap="square"/>
</svg>
